<svg width="23" height="19" viewBox="0 0 23 19" fill="none" xmlns="http://www.w3.org/2000/svg">
<path d="M17.973 18.69C16.075 18.69 14.6393 17.9113 13.666 16.354C12.8387 15.04 12.425 13.434 12.425 11.536C12.425 9.10266 13.0333 6.91266 14.25 4.966C15.5153 3.01933 17.4133 1.462 19.944 0.293995L20.601 1.608C19.0923 2.24066 17.7783 3.23833 16.659 4.601C15.5883 5.96366 15.053 7.35066 15.053 8.762C15.053 9.346 15.126 9.857 15.272 10.295C16.0507 9.66233 16.951 9.346 17.973 9.346C19.287 9.346 20.382 9.784 21.258 10.66C22.1827 11.4873 22.645 12.6067 22.645 14.018C22.645 15.332 22.1827 16.4513 21.258 17.376C20.382 18.252 19.287 18.69 17.973 18.69ZM5.563 18.69C3.665 18.69 2.22933 17.9113 1.256 16.354C0.428667 15.04 0.0150003 13.434 0.0150003 11.536C0.0150003 9.10266 0.623334 6.91266 1.84 4.966C3.10533 3.01933 5.00333 1.462 7.534 0.293995L8.191 1.608C6.68233 2.24066 5.36833 3.23833 4.249 4.601C3.17833 5.96366 2.643 7.35066 2.643 8.762C2.643 9.346 2.716 9.857 2.862 10.295C3.64067 9.66233 4.541 9.346 5.563 9.346C6.877 9.346 7.972 9.784 8.848 10.66C9.77267 11.4873 10.235 12.6067 10.235 14.018C10.235 15.332 9.77267 16.4513 8.848 17.376C7.972 18.252 6.877 18.69 5.563 18.69Z" fill="#1371E2"/>
</svg>
