<?xml version="1.0" encoding="utf-8"?>
<!-- Generator: Adobe Illustrator 26.0.1, SVG Export Plug-In . SVG Version: 6.00 Build 0)  -->
<svg version="1.1" id="Layer_1" xmlns="http://www.w3.org/2000/svg" xmlns:xlink="http://www.w3.org/1999/xlink" x="0px" y="0px"
	 viewBox="0 0 80 80" style="enable-background:new 0 0 80 80;" xml:space="preserve">
<style type="text/css">
	.st0{fill:#4F8CCA;}
	.st1{fill:#3B6FB7;}
</style>
<g>
	<path class="st0" d="M57.8,40c0-15-12.1-27.1-27.1-27.1S3.5,25,3.5,40c0,10.2,5.6,19,13.9,23.7V44.9c0-2.2,1.8-4,4-4
		c2.2,0,4,1.8,4,4v21.7c1.7,0.4,3.5,0.5,5.4,0.5c0.6,0,1.2,0,1.7-0.1V52.2c0-2.2,1.8-4,4-4l0,0c2.2,0,4,1.8,4,4v13.2
		c2.6-1,5-2.3,7.1-4V38.2c0-2.2,1.8-4,4-4l0,0c2.2,0,4,1.8,4,4v13.2C56.9,47.9,57.8,44.1,57.8,40z"/>
	<path class="st1" d="M47.4,11c-16,0-29,13-29,29c0,0.8,0,1.5,0.1,2.2c0.7-0.8,1.8-1.3,2.9-1.3c2.2,0,4,1.8,4,4v13.9
		c2,2.4,4.4,4.4,7.1,6V52.2c0-2.2,1.8-4,4-4l0,0c2.2,0,4,1.8,4,4v16c2.3,0.6,4.7,0.9,7.1,0.9V38.1c0-2.2,1.8-4,4-4l0,0
		c2.2,0,4,1.8,4,4V68C67.5,64.5,76.5,53.3,76.5,40C76.4,24,63.4,11,47.4,11z"/>
</g>
</svg>
