<?xml version="1.0" encoding="UTF-8"?>
<!DOCTYPE svg PUBLIC "-//W3C//DTD SVG 1.1//EN" "http://www.w3.org/Graphics/SVG/1.1/DTD/svg11.dtd">
<!-- Creator: CorelDRAW -->
<svg xmlns="http://www.w3.org/2000/svg" xml:space="preserve" width="20.2972in" height="3.74843in" version="1.1" style="shape-rendering:geometricPrecision; text-rendering:geometricPrecision; image-rendering:optimizeQuality; fill-rule:evenodd; clip-rule:evenodd"
viewBox="0 0 20297.24 3748.43"
 xmlns:xlink="http://www.w3.org/1999/xlink"
 xmlns:xodm="http://www.corel.com/coreldraw/odm/2003">
 <defs>
  <style type="text/css">
   <![CDATA[
    .str0 {stroke:black;stroke-width:10.42;stroke-miterlimit:2.61313}
    .str1 {stroke:black;stroke-width:3;stroke-miterlimit:2.61313}
    .fil3 {fill:none}
    .fil5 {fill:none;fill-rule:nonzero}
    .fil4 {fill:black;fill-rule:nonzero}
    .fil1 {fill:#1371E2;fill-rule:nonzero}
    .fil0 {fill:#3592EF;fill-rule:nonzero}
    .fil2 {fill:white;fill-rule:nonzero}
   ]]>
  </style>
 </defs>
 <g id="Layer_x0020_1">
  <metadata id="CorelCorpID_0Corel-Layer"/>
  <g id="_2801967586528">
   <g>
    <g>
     <g>
      <g>
       <path class="fil0" d="M3449.87 1882.84c0,-953.15 -772,-1723.76 -1723.76,-1723.76 -951.76,0 -1725.15,770.61 -1725.15,1723.76 0,646.59 355.35,1208.17 882.08,1504.98l0 -1192.83c0,-137.96 111.48,-250.83 250.83,-250.83 137.96,0 250.83,111.48 250.83,250.83l0 1378.17c110.09,22.3 224.35,33.44 341.41,33.44 36.23,0 73.86,-1.4 110.09,-2.79l0 -946.19c0,-137.96 111.48,-250.83 250.83,-250.83l0 0c137.96,0 250.83,111.48 250.83,250.83l0 837.5c163.04,-62.7 316.32,-149.1 451.49,-255.01l0 -1474.33c0,-137.96 111.48,-250.83 250.83,-250.83l0 0c137.96,0 250.83,111.48 250.83,250.83l0 841.67c101.72,-221.57 158.86,-466.82 158.86,-724.62z"/>
       <path class="fil1" d="M2789.35 35.06c-1020.04,0 -1846.39,826.34 -1846.39,1846.39 0,47.38 1.4,96.15 6.97,142.14 45.98,-50.17 111.48,-82.21 183.94,-82.21 137.96,0 250.83,111.48 250.83,250.83l0 884.87c128.2,150.5 281.49,281.49 451.49,384.61l0 -805.44c0,-137.96 111.48,-250.83 250.83,-250.83l0 0c137.96,0 250.83,111.48 250.83,250.83l0 1014.47c143.53,36.23 296.81,55.74 451.49,55.74l0 -1964.83c0,-137.96 111.48,-250.83 250.83,-250.83l0 0c137.96,0 250.83,111.48 250.83,250.83l0 1895.16c776.18,-217.39 1344.73,-932.25 1344.73,-1776.71 0,-1017.25 -826.35,-1844.99 -1846.39,-1844.99z"/>
      </g>
      <g>
       <path class="fil1" d="M8742.37 1315.68l447.31 0 0 196.48 32.05 0c51.56,-78.04 117.06,-139.35 195.09,-182.55 79.43,-43.2 172.79,-65.49 281.48,-65.49 118.45,0 217.39,29.26 296.81,85 78.04,55.74 135.17,121.24 164.43,195.09 45.98,-73.86 114.27,-139.35 200.67,-195.09 86.39,-55.74 196.48,-85 328.87,-85 93.37,0 174.19,15.33 245.26,45.98 71.07,30.66 128.2,73.85 172.8,129.59 45.98,55.74 79.43,121.24 104.51,196.48 23.69,76.64 34.84,160.25 34.84,250.83l0 987.99 -476.58 0 0 -894.63c0,-79.43 -19.51,-146.31 -55.74,-195.09 -36.23,-50.17 -90.58,-75.25 -163.04,-75.25 -104.51,0 -182.54,41.81 -235.5,126.81 -52.95,83.61 -79.43,195.09 -79.43,335.84l0 705.11 -476.58 0.01 0 -894.63c0,-79.43 -19.51,-146.31 -59.92,-195.09 -40.41,-50.17 -100.33,-75.25 -182.55,-75.25 -97.54,0 -171.4,41.81 -218.78,126.81 -50.17,83.61 -73.86,195.09 -73.86,335.83l0 705.11 -476.58 0 0 -1564.9 -5.57 0z"/>
       <path class="fil1" d="M12414.24 2735.66l-32.05 0c-51.56,55.74 -108.7,100.33 -172.8,137.96 -64.1,36.23 -149.1,54.35 -249.43,54.35 -78.04,0 -151.89,-12.54 -221.57,-39.02 -68.28,-25.09 -129.59,-61.31 -181.16,-108.7 -52.95,-45.98 -93.36,-103.12 -122.63,-168.61 -30.66,-65.49 -44.59,-139.35 -44.59,-218.78 0,-78.04 15.33,-150.5 47.38,-214.6 32.06,-64.1 75.25,-119.84 130.99,-165.82 54.35,-45.98 119.84,-83.61 195.09,-108.7 75.25,-25.08 157.46,-39.02 246.65,-39.02 96.15,0 174.19,6.97 236.89,19.51 62.71,12.54 118.45,27.87 165.83,44.59l0 -41.81c0,-66.89 -29.26,-126.81 -85.01,-172.79 -55.74,-47.38 -132.38,-72.46 -227.14,-72.46 -137.96,0 -256.4,55.74 -356.74,168.61l-324.69 -228.54c89.18,-105.9 192.31,-185.34 310.75,-236.89 118.45,-51.56 248.04,-78.04 390.18,-78.04 255.01,0 447.31,55.74 576.91,170 129.59,114.27 193.7,287.06 193.7,516.98l0 923.89 -476.57 0 0 -142.13 0 0zm0 -473.8c-50.17,-19.51 -97.54,-33.44 -146.31,-44.59 -48.77,-11.15 -97.55,-15.33 -149.1,-15.33 -85,0 -149.1,18.12 -190.91,52.95 -43.2,34.84 -64.1,79.43 -64.1,136.56 0,57.13 20.91,98.94 61.31,132.38 40.41,33.44 93.37,50.17 158.86,50.17 52.95,0 100.33,-9.76 142.14,-27.87 41.81,-18.12 75.25,-41.81 104.52,-72.46 27.87,-30.66 47.38,-62.7 62.7,-100.33 15.32,-39.01 20.89,-76.64 20.89,-111.48z"/>
       <path class="fil1" d="M13849.54 3614.96c-111.48,0 -213.2,-13.94 -302.39,-43.2 -89.18,-29.26 -165.82,-65.49 -234.11,-111.48 -66.89,-45.98 -121.24,-96.15 -164.44,-151.89 -43.2,-55.74 -75.25,-114.27 -97.54,-170l458.46 -181.16c30.66,79.43 76.64,140.74 140.74,179.76 64.1,40.41 130.99,59.92 200.66,59.92 115.66,0 207.63,-36.23 278.7,-111.48 71.07,-73.86 107.3,-181.16 107.3,-319.11l0 -86.4 -32.06 0.01c-97.54,130.99 -246.65,196.48 -447.31,196.48 -89.18,0 -178.37,-19.51 -264.76,-55.74 -86.4,-36.23 -164.44,-89.19 -235.5,-158.86 -71.07,-69.68 -126.81,-153.28 -168.62,-253.62 -43.2,-98.93 -64.1,-213.2 -64.1,-337.22 0,-125.42 20.9,-238.29 64.1,-337.22 43.2,-98.94 98.94,-183.94 168.62,-253.62 71.07,-68.28 149.1,-121.23 235.5,-158.86 86.39,-36.23 174.19,-55.74 264.76,-55.74 200.67,0 346.98,65.49 447.31,196.48l32.06 0 0 -147.71 458.46 0 0 1426.94c0,128.2 -19.51,245.26 -59.92,352.56 -40.41,107.3 -96.15,200.67 -168.61,277.31 -73.85,76.64 -161.65,137.96 -266.16,179.76 -107.3,43.2 -222.96,64.1 -351.16,64.1zm18.11 -1171.93c44.59,0 87.79,-8.37 132.38,-23.69 43.2,-15.32 83.61,-40.41 118.45,-71.07 34.84,-30.66 62.7,-68.28 85,-117.06 20.91,-45.98 32.05,-100.33 32.05,-161.65 0,-61.32 -11.15,-115.66 -32.05,-161.65 -20.91,-45.98 -50.17,-85 -85,-117.06 -34.84,-30.66 -73.86,-54.35 -118.45,-71.07 -43.2,-15.33 -87.79,-23.69 -132.38,-23.69 -44.59,0 -87.79,8.37 -132.38,23.69 -43.2,15.33 -83.61,40.41 -118.45,71.07 -34.84,30.66 -62.7,68.28 -85,117.06 -20.91,45.98 -32.05,100.33 -32.05,161.65 0,61.31 11.15,115.66 32.05,161.65 20.9,45.98 50.17,85 85,117.06 34.84,30.66 73.86,54.35 118.45,71.07 43.2,15.33 87.79,23.69 132.38,23.69z"/>
       <path class="fil1" d="M15256.98 1512.17l32.05 0c105.91,-164.44 266.16,-248.04 476.58,-248.04 195.09,0 341.41,62.7 437.56,186.72 96.15,125.42 143.53,289.85 143.53,493.3l0 930.86 -479.37 0 0 -875.11c0,-85.01 -20.91,-153.28 -61.31,-207.63 -40.41,-54.35 -103.12,-82.21 -186.73,-82.21 -108.7,0 -190.91,41.81 -246.65,125.42 -55.74,83.61 -85,190.91 -85,324.69l0 717.65 -476.57 -0 0 -1560.72 447.31 0 0 196.48 -1.39 0 0 -1.39z"/>
       <path class="fil1" d="M18024.46 2497.37c-76.64,135.17 -175.58,238.29 -301,314.93 -125.41,76.64 -273.12,115.66 -451.49,115.66 -121.24,0 -234.11,-20.91 -335.83,-62.71 -103.12,-41.81 -192.31,-98.93 -268.95,-172.79 -76.64,-73.85 -136.56,-161.65 -178.37,-261.98 -43.2,-100.33 -64.1,-211.81 -64.1,-333.04 0,-111.48 20.91,-218.78 64.1,-320.5 43.2,-100.33 100.33,-189.51 175.59,-264.76 75.25,-75.25 163.04,-136.56 264.76,-179.76 100.33,-44.59 211.81,-66.89 330.26,-66.89 129.59,0 243.86,20.91 342.8,64.1 98.94,43.2 181.16,100.33 246.65,172.79 65.49,73.86 115.66,158.86 150.5,257.8 33.44,98.94 51.56,204.85 51.56,316.32 0,18.12 0,33.44 -1.39,51.56 -1.4,18.12 -2.79,32.05 -4.19,44.59 -1.39,13.94 -2.78,29.26 -2.78,41.81l-1151.03 -0.01c23.69,103.12 71.07,175.58 143.53,222.96 72.46,45.98 151.89,71.07 241.07,71.07 89.18,0 163.04,-19.51 221.57,-57.13 57.13,-39.02 104.52,-86.4 139.35,-147.71l387.39 193.7zm-423.62 -608.96c-4.18,-25.08 -13.93,-52.95 -30.66,-83.61 -15.33,-30.66 -39.02,-55.74 -66.89,-82.21 -29.26,-23.69 -64.1,-44.59 -105.91,-61.31 -41.8,-16.72 -87.79,-23.69 -139.35,-23.69 -73.86,0 -143.53,20.9 -206.24,64.1 -64.1,43.2 -110.09,104.51 -140.74,183.94l689.78 0 0 2.78z"/>
       <polygon class="fil1" points="19381.73,2213.1 19044.5,2213.1 19044.5,2926.57 18570.71,2926.57 18570.71,2213.1 18134.55,2213.1 18134.55,1889.81 18569.32,1889.81 18570.71,1280.85 19044.5,1280.85 19044.5,1889.81 19477.88,1889.81 19477.88,2119.73 19477.88,2213.1 "/>
      </g>
      <g>
       <circle class="fil1" cx="19884.78" cy="2535" r="411.08"/>
       <g>
        <path class="fil2" d="M19769.13 2317.61c0,12.54 -4.19,22.3 -12.54,30.66 -8.36,8.36 -19.51,12.54 -30.66,12.54 -12.54,0 -22.29,-4.18 -30.66,-12.54 -8.36,-8.36 -12.54,-19.51 -12.54,-30.66 0,-12.54 4.18,-22.3 12.54,-30.66 8.36,-8.36 19.51,-12.54 30.66,-12.54 12.54,0 22.3,4.18 30.66,12.54 8.36,8.36 12.54,18.11 12.54,30.66zm-12.55 114.26l0 331.65 -62.7 0 0 -331.65 62.7 0z"/>
        <path class="fil2" d="M19816.5 2596.31c0,-51.56 15.33,-93.37 47.38,-126.81 32.05,-33.44 73.86,-50.17 121.24,-50.17 50.17,0 89.19,15.33 121.24,50.17 32.06,34.84 47.38,75.25 47.38,126.81 0,51.56 -15.33,93.36 -47.38,126.81 -32.05,33.44 -72.46,50.17 -121.24,50.17 -48.78,0 -89.18,-15.33 -121.24,-50.17 -32.05,-33.44 -47.38,-75.25 -47.38,-126.81zm61.31 0c0,34.84 9.75,64.1 30.66,86.39 20.91,22.3 45.98,33.44 76.64,33.44 30.66,0 55.74,-11.15 76.64,-33.44 20.91,-22.29 30.66,-51.56 30.66,-86.39 0,-34.84 -9.75,-64.1 -30.66,-86.4 -20.9,-22.3 -45.98,-33.44 -76.64,-33.44 -30.66,0 -55.74,11.15 -76.64,33.44 -20.91,23.69 -30.66,51.56 -30.66,86.4z"/>
       </g>
      </g>
      <g>
       <g>
        <path class="fil0" d="M8334.08 1318.47l-426.41 1305.71 -445.92 -1305.71 -176.97 0 536.5 1569.08c-12.54,34.84 -32.05,89.18 -37.63,98.94 -80.82,168.61 -96.15,197.88 -447.31,197.88l0 167.22c411.08,0 484.94,-59.92 597.81,-292.64 11.15,-23.69 50.17,-130.99 54.35,-146.31l521.17 -1595.56 -175.58 0.01 0 1.39z"/>
        <path class="fil0" d="M7315.43 1946.94l0 -41.81 0 -20.9 -1.4 -23.69c-1.39,-16.72 -1.39,-32.05 -2.78,-48.77l-6.97 -47.38c-6.97,-32.05 -12.54,-62.71 -23.69,-93.37 -19.51,-61.31 -47.38,-121.24 -86.39,-174.19 -37.63,-52.95 -83.61,-101.72 -137.96,-140.74 -13.94,-9.75 -27.87,-19.51 -41.81,-27.87 -15.33,-8.36 -29.26,-15.33 -44.59,-23.69l-47.38 -18.12c-15.33,-5.57 -32.05,-9.76 -48.77,-13.94 -16.72,-4.18 -32.05,-6.97 -48.77,-8.36l-25.09 -2.79c-8.36,-1.39 -16.72,0 -25.08,-1.39 -16.72,0 -33.44,-1.4 -48.77,0 -16.72,1.39 -32.05,2.78 -48.77,4.18 -65.49,9.75 -128.2,30.66 -183.94,62.7 -112.87,64.1 -199.27,165.83 -248.04,280.09 0,0 0,0 0,0 -11.15,-25.09 -23.69,-50.17 -37.63,-75.25 -32.05,-54.35 -73.85,-104.52 -122.63,-146.32 -23.69,-20.9 -51.56,-39.02 -78.04,-55.74l-43.2 -22.3c-13.94,-6.97 -30.66,-12.54 -44.59,-18.12 -61.31,-20.9 -125.42,-29.26 -189.51,-27.87 -62.71,2.79 -125.42,15.33 -183.94,37.63 -89.19,34.84 -165.83,91.97 -227.14,163.04l0 -146.31 -167.21 0.02 0 1562.11 167.22 0 0 -1103.65c1.39,-12.54 2.78,-25.08 5.57,-36.23l8.36 -34.84c1.4,-5.57 2.79,-11.15 5.57,-16.72l6.97 -16.72 6.97 -16.72 8.36 -16.72c5.57,-11.15 9.75,-22.3 16.72,-32.05 23.69,-43.2 55.74,-79.43 91.98,-111.48l13.93 -11.15c4.18,-4.19 9.76,-6.97 13.94,-9.76l15.33 -9.76 6.97 -5.57 8.36 -4.18c11.15,-5.57 20.91,-11.15 32.05,-16.72l33.44 -12.54c44.59,-13.93 91.97,-19.51 139.35,-16.72 47.38,2.79 91.98,15.33 132.38,33.44l15.33 6.97c5.57,2.78 11.15,4.18 15.33,6.96l29.26 16.72c9.76,6.97 18.12,13.94 27.87,19.51l6.97 5.57 6.97 5.57 12.54 11.15c33.44,30.66 62.7,66.89 86.39,107.3 22.3,40.41 40.41,85 51.56,129.59l6.97 34.84c2.78,11.15 2.78,23.69 4.18,34.84l2.79 18.12 0 18.12 0 18.12c0,5.57 0,11.15 0,19.51l-1.4 164.43 0 164.43 1.4 328.87c1.39,110.09 1.39,220.17 4.18,328.87l168.61 -0.01c1.39,-110.09 2.78,-220.17 4.18,-328.87l1.4 -328.87 0 -164.44 -1.4 -164.43c0,-4.18 0,-8.36 0,-13.93 0,-25.09 1.4,-50.17 5.57,-75.25 1.4,-12.54 4.19,-25.09 6.97,-37.63 2.79,-12.54 6.97,-25.09 9.76,-37.63 6.97,-25.09 16.72,-48.77 27.87,-71.07 22.3,-45.98 50.17,-87.79 83.61,-124.02 33.44,-36.23 73.85,-65.5 118.45,-86.4 43.2,-20.91 90.58,-32.05 137.96,-34.84 47.38,-2.79 96.15,4.18 139.35,16.72l16.72 5.57c5.57,1.4 11.15,2.79 16.72,5.57l32.05 13.93c9.75,5.57 19.51,12.54 30.66,18.12 9.76,5.57 19.51,13.94 27.87,19.51 36.23,27.87 69.68,62.71 96.15,101.73 27.87,39.02 47.38,83.61 61.31,129.59 8.36,22.3 12.54,47.38 16.72,71.07l4.18 36.23c1.4,12.54 1.4,23.69 1.4,36.23l1.39 18.12 0 20.9 0 41.81 0 85.01 0 170 1.4 340.01c1.39,112.87 1.39,225.75 4.18,340.01l168.6 0.01c1.4,-112.87 2.79,-225.75 4.18,-340.01l1.4 -340.01 0 -170.01 -6.97 -85.01z"/>
       </g>
      </g>
     </g>
    </g>
   </g>
   <circle class="fil3 str0" cx="19761.29" cy="1028.81" r="176.99"/>
   <g>
    <path class="fil4" d="M19753.47 1011.77c10.54,0 18.21,-2.11 22.81,-6.14 4.6,-3.83 7.09,-10.35 7.09,-19.56 0,-9.01 -2.5,-15.34 -7.09,-19.36 -4.6,-3.83 -12.27,-5.75 -22.81,-5.75l-21.48 0 0 50.81 21.48 0 0 0zm-21.48 35.08l0 74.78 -51 0 0 -197.67 77.84 0c26.07,0 45.06,4.41 57.13,13.23 12.27,8.63 18.21,22.43 18.21,41.41 0,13.04 -3.07,23.77 -9.39,32.21 -6.33,8.24 -15.72,14.57 -28.57,18.41 7.09,1.72 13.23,5.37 18.79,10.93 5.56,5.56 11.12,14 16.68,25.5l27.8 55.98 -54.26 0 -24.16 -49.08c-4.79,-9.78 -9.78,-16.68 -14.76,-20.13 -4.98,-3.65 -11.69,-5.56 -19.94,-5.56l-14.38 0z"/>
    <path id="_1" class="fil5 str1" d="M19753.47 1011.77c10.54,0 18.21,-2.11 22.81,-6.14 4.6,-3.83 7.09,-10.35 7.09,-19.56 0,-9.01 -2.5,-15.34 -7.09,-19.36 -4.6,-3.83 -12.27,-5.75 -22.81,-5.75l-21.48 0 0 50.81 21.48 0m-21.48 35.08l0 74.78 -51 0 0 -197.67 77.84 0c26.07,0 45.06,4.41 57.13,13.23 12.27,8.63 18.21,22.43 18.21,41.41 0,13.04 -3.07,23.77 -9.39,32.21 -6.33,8.24 -15.72,14.57 -28.57,18.41 7.09,1.72 13.23,5.37 18.79,10.93 5.56,5.56 11.12,14 16.68,25.5l27.8 55.98 -54.26 0 -24.16 -49.08c-4.79,-9.78 -9.78,-16.68 -14.76,-20.13 -4.98,-3.65 -11.69,-5.56 -19.94,-5.56l-14.38 0z"/>
   </g>
  </g>
 </g>
</svg>
