<?xml version="1.0" encoding="UTF-8"?>
<svg id="Layer_1" data-name="Layer 1" xmlns="http://www.w3.org/2000/svg" xmlns:xlink="http://www.w3.org/1999/xlink" viewBox="0 0 118 36">
  <defs>
    <style>
      .cls-1 {
        fill: url(#linear-gradient);
      }

      .cls-1, .cls-2, .cls-3, .cls-4 {
        stroke-width: 0px;
      }

      .cls-2 {
        fill: #a7a6a6;
      }

      .cls-3 {
        fill: #fff;
      }

      .cls-4 {
        fill: #010101;
      }
    </style>
    <linearGradient id="linear-gradient" x1="-43.45" y1="-47.95" x2="-43.45" y2="-43.05" gradientTransform="translate(1115.66 -1103.36) scale(23.74 -23.72)" gradientUnits="userSpaceOnUse">
      <stop offset="0" stop-color="#1a1a1a" stop-opacity=".1"/>
      <stop offset=".12" stop-color="#212121" stop-opacity=".15"/>
      <stop offset=".31" stop-color="#353635" stop-opacity=".23"/>
      <stop offset=".53" stop-color="#575858" stop-opacity=".32"/>
      <stop offset=".78" stop-color="#858585" stop-opacity=".42"/>
      <stop offset="1" stop-color="#b4b4b4" stop-opacity=".51"/>
    </linearGradient>
  </defs>
  <path class="cls-3" d="m112.72,30.32c0,1.71-1.38,3.09-3.09,3.09,0,0,0,0,0,0H8.38c-1.71,0-3.1-1.38-3.1-3.09V5.68c0-1.71,1.39-3.09,3.1-3.09h101.24c1.71,0,3.09,1.38,3.09,3.09h0s0,24.64,0,24.64h0Z"/>
  <path class="cls-2" d="m109.62,34.13H8.38c-2.1,0-3.81-1.7-3.82-3.81V5.68c0-2.11,1.71-3.81,3.82-3.81h101.24c2.11,0,3.81,1.71,3.82,3.81v24.64c0,2.1-1.71,3.81-3.82,3.81h0Z"/>
  <path class="cls-4" d="m112.72,30.32c0,1.71-1.38,3.09-3.09,3.09,0,0,0,0,0,0H8.38c-1.71,0-3.1-1.38-3.1-3.09V5.68c0-1.71,1.39-3.09,3.1-3.09h101.24c1.71,0,3.09,1.38,3.09,3.09h0s0,24.64,0,24.64h0Z"/>
  <path class="cls-3" d="m28.87,17.83c-.02-2.6,2.13-3.86,2.23-3.92-1.22-1.78-3.11-2.02-3.77-2.04-1.59-.17-3.13.95-3.94.95s-2.07-.93-3.41-.91c-1.73.03-3.34,1.03-4.23,2.58-1.83,3.16-.46,7.82,1.29,10.37.88,1.25,1.9,2.65,3.24,2.6,1.31-.05,1.8-.83,3.38-.83s2.03.83,3.39.8c1.41-.02,2.29-1.26,3.14-2.52,1.01-1.44,1.42-2.85,1.44-2.92-.03-.01-2.73-1.04-2.76-4.16h0Zm-2.58-7.65c.71-.88,1.19-2.08,1.05-3.3-1.02.05-2.3.71-3.03,1.57-.65.76-1.23,2.01-1.08,3.18,1.15.09,2.32-.58,3.06-1.45Z"/>
  <path class="cls-1" d="m109.62,1.87h-54.23l21.24,32.26h32.99c2.11,0,3.81-1.71,3.82-3.81V5.68c0-2.11-1.71-3.81-3.82-3.81Z"/>
  <path class="cls-3" d="m47.87,27.28h-1.83l-1-3.15h-3.49l-.96,3.15h-1.78l3.46-10.74h2.14l3.47,10.74h0Zm-3.14-4.48l-.91-2.8c-.1-.29-.28-.96-.54-2.02h-.03c-.11.46-.28,1.13-.51,2.02l-.89,2.8h2.88Zm12.01.51c0,1.32-.36,2.36-1.07,3.12-.64.68-1.44,1.02-2.39,1.02-1.03,0-1.76-.37-2.21-1.1v4.06h-1.72v-8.34c0-.83-.02-1.67-.06-2.54h1.51l.1,1.23h.03c.57-.92,1.44-1.39,2.61-1.39.91,0,1.68.36,2.29,1.08.61.72.92,1.67.92,2.85h0Zm-1.75.06c0-.75-.17-1.37-.51-1.86-.37-.51-.87-.76-1.5-.76-.42,0-.81.14-1.15.42-.35.28-.57.65-.68,1.11-.05.17-.07.35-.08.52v1.29c0,.56.17,1.04.52,1.43.35.39.79.58,1.35.58.65,0,1.15-.25,1.51-.75.36-.5.54-1.16.54-1.98Zm10.66-.06c0,1.32-.36,2.36-1.07,3.12-.64.68-1.44,1.02-2.39,1.02-1.03,0-1.76-.37-2.21-1.1v4.06h-1.72v-8.34c0-.83-.02-1.67-.06-2.54h1.51l.1,1.23h.03c.57-.92,1.44-1.39,2.61-1.39.91,0,1.68.36,2.29,1.08.61.72.92,1.67.92,2.85h0Zm-1.75.06c0-.75-.17-1.37-.51-1.86-.37-.51-.87-.76-1.5-.76-.42,0-.81.14-1.16.42-.35.28-.57.65-.68,1.11-.05.21-.08.39-.08.52v1.29c0,.56.17,1.04.52,1.43.35.39.79.58,1.35.58.65,0,1.15-.25,1.51-.75.36-.5.54-1.16.54-1.98Zm11.71.89c0,.91-.32,1.66-.95,2.23-.7.63-1.67.94-2.93.94-1.16,0-2.08-.22-2.78-.67l.4-1.43c.75.45,1.58.67,2.49.67.65,0,1.15-.15,1.51-.44.36-.29.54-.68.54-1.17,0-.44-.15-.8-.45-1.1-.3-.3-.79-.57-1.48-.83-1.88-.7-2.82-1.73-2.82-3.08,0-.88.33-1.6,1-2.17.66-.56,1.54-.84,2.64-.84.98,0,1.79.17,2.44.51l-.43,1.4c-.61-.33-1.3-.49-2.06-.49-.61,0-1.08.15-1.42.45-.29.27-.43.59-.43.97,0,.42.17.78.49,1.05.29.25.81.53,1.56.83.92.37,1.6.81,2.04,1.31.44.5.66,1.12.66,1.86h0Zm5.7-3.44h-1.9v3.76c0,.96.33,1.43,1,1.43.31,0,.56-.03.76-.08l.05,1.31c-.34.13-.79.19-1.34.19-.68,0-1.21-.21-1.59-.62-.38-.41-.57-1.11-.57-2.09v-3.9h-1.13v-1.29h1.13v-1.42l1.69-.51v1.93h1.9v1.29h0Zm8.54,2.52c0,1.19-.34,2.17-1.02,2.93-.71.79-1.66,1.18-2.84,1.18s-2.04-.38-2.72-1.13c-.67-.75-1.01-1.7-1.01-2.85s.35-2.18,1.04-2.95c.7-.76,1.63-1.15,2.81-1.15s2.05.38,2.74,1.13c.66.73.99,1.67.99,2.83h0Zm-1.78.04c0-.71-.15-1.32-.46-1.83-.36-.61-.88-.92-1.55-.92s-1.22.31-1.58.92c-.31.51-.46,1.13-.46,1.86s.15,1.32.46,1.83c.37.61.89.92,1.56.92s1.17-.31,1.55-.94c.32-.52.48-1.13.48-1.84h0Zm7.38-2.33c-.18-.03-.36-.05-.54-.05-.61,0-1.07.23-1.4.69-.29.4-.43.91-.43,1.53v4.06h-1.72v-5.3c0-.81-.02-1.63-.05-2.44h1.5l.06,1.48h.05c.18-.51.47-.92.86-1.23.36-.27.8-.41,1.24-.41.16,0,.3.01.43.03v1.64s0,0,0,0Zm7.69,1.99c0,.26-.02.52-.06.78h-5.16c.02.76.27,1.35.75,1.75.43.36,1,.54,1.69.54.76,0,1.46-.12,2.09-.37l.27,1.19c-.73.32-1.6.48-2.6.48-1.2,0-2.14-.35-2.83-1.06-.68-.71-1.03-1.65-1.03-2.84s.32-2.14.96-2.91c.67-.83,1.57-1.24,2.71-1.24s1.96.41,2.53,1.24c.45.66.68,1.47.68,2.43h0Zm-1.64-.45c.01-.51-.1-.95-.33-1.32-.3-.48-.76-.72-1.37-.72-.56,0-1.02.23-1.37.7-.29.37-.46.82-.51,1.34h3.58s0,0,0,0Z"/>
  <path class="cls-3" d="m41.04,12.75c-.48,0-.89-.02-1.24-.06v-5.19c.48-.07.97-.11,1.46-.11,1.97,0,2.88.97,2.88,2.55,0,1.82-1.07,2.81-3.1,2.81Zm.29-4.7c-.27,0-.49.02-.68.05v3.95c.1.02.3.02.57.02,1.29,0,2.03-.74,2.03-2.11,0-1.23-.67-1.91-1.92-1.91Zm5.64,4.74c-1.11,0-1.83-.83-1.83-1.96s.74-2.01,1.9-2.01c1.1,0,1.83.79,1.83,1.95s-.76,2.02-1.9,2.02Zm.03-3.35c-.61,0-1,.57-1,1.37s.4,1.35.99,1.35.99-.61.99-1.37-.39-1.35-.99-1.35h0Zm8.2-.54l-1.19,3.8h-.78l-.49-1.65c-.12-.4-.22-.81-.31-1.23h-.02c-.06.41-.18.83-.31,1.23l-.52,1.65h-.78l-1.12-3.8h.87l.43,1.81c.1.43.19.84.26,1.22h.02c.06-.32.16-.72.31-1.21l.54-1.82h.69l.52,1.78c.13.43.23.85.31,1.25h.02c.05-.39.14-.81.26-1.25l.46-1.78h.83Zm4.38,3.8h-.85v-2.18c0-.67-.26-1.01-.77-1.01s-.85.43-.85.93v2.26h-.85v-2.72c0-.34,0-.7-.03-1.09h.74l.04.59h.02c.23-.41.69-.66,1.21-.66.8,0,1.32.61,1.32,1.6v2.28s0,0,0,0Zm2.33,0h-.85v-5.55h.85v5.55Zm3.08.09c-1.11,0-1.83-.83-1.83-1.96s.74-2.01,1.89-2.01c1.1,0,1.83.79,1.83,1.95,0,1.19-.76,2.02-1.89,2.02Zm.03-3.35c-.61,0-1,.57-1,1.37s.4,1.35.99,1.35.99-.61.99-1.37c0-.77-.39-1.35-.99-1.35h0Zm5.2,3.26l-.06-.44h-.02c-.26.35-.64.52-1.11.52-.68,0-1.17-.48-1.17-1.12,0-.94.81-1.42,2.22-1.42v-.07c0-.5-.27-.75-.79-.75-.38,0-.7.09-.99.28l-.17-.56c.35-.22.79-.33,1.31-.33.99,0,1.5.52,1.5,1.57v1.4c0,.38.02.68.05.91h-.76s0,0,0,0Zm-.12-1.89c-.94,0-1.41.23-1.41.77,0,.4.24.59.58.59.43,0,.83-.33.83-.77v-.59Zm4.93,1.89l-.04-.61h-.02c-.24.46-.65.7-1.22.7-.92,0-1.6-.81-1.6-1.94s.7-2.03,1.67-2.03c.51,0,.87.17,1.07.52h.02v-2.18h.85v4.52c0,.37,0,.71.03,1.03h-.75Zm-.13-2.24c0-.53-.35-.99-.89-.99-.63,0-1.01.56-1.01,1.34s.4,1.29.99,1.29c.53,0,.91-.46.91-1.01v-.63h0Zm6.21,2.32c-1.11,0-1.83-.83-1.83-1.96s.74-2.01,1.89-2.01c1.1,0,1.83.79,1.83,1.95,0,1.19-.76,2.02-1.9,2.02h0Zm.03-3.35c-.61,0-1,.57-1,1.37s.4,1.35.99,1.35.99-.61.99-1.37c0-.77-.39-1.35-.99-1.35h0Zm6.41,3.26h-.85v-2.18c0-.67-.26-1.01-.77-1.01s-.84.43-.84.93v2.26h-.85v-2.72c0-.34,0-.7-.03-1.09h.74l.04.59h.02c.23-.41.69-.67,1.21-.67.8,0,1.32.61,1.32,1.6v2.28Zm5.69-3.17h-.93v1.85c0,.47.16.71.49.71.15,0,.27-.02.38-.04l.02.64c-.16.06-.38.09-.66.09-.67,0-1.07-.37-1.07-1.33v-1.92h-.56v-.63h.56v-.7l.83-.25v.95h.93v.63h0Zm4.48,3.17h-.84v-2.17c0-.68-.26-1.03-.77-1.03-.44,0-.85.3-.85.9v2.29h-.84v-5.55h.84v2.29h.02c.27-.41.65-.62,1.14-.62.81,0,1.3.63,1.3,1.62v2.26h0Zm4.59-1.7h-2.54c.02.72.49,1.13,1.2,1.13.38,0,.72-.06,1.03-.18l.13.59c-.36.16-.78.23-1.28.23-1.19,0-1.89-.75-1.89-1.92s.72-2.04,1.8-2.04c.97,0,1.58.72,1.58,1.81,0,.13,0,.26-.03.38h0Zm-.78-.6c0-.59-.3-1-.84-1-.49,0-.87.42-.92,1h1.76Z"/>
</svg>