<?xml version="1.0" encoding="UTF-8"?>
<svg id="Layer_1" data-name="Layer 1" xmlns="http://www.w3.org/2000/svg" xmlns:xlink="http://www.w3.org/1999/xlink" viewBox="0 0 118 36">
  <defs>
    <style>
      .cls-1 {
        clip-path: url(#clippath);
      }

      .cls-2 {
        fill: none;
      }

      .cls-2, .cls-3, .cls-4, .cls-5, .cls-6, .cls-7, .cls-8, .cls-9, .cls-10, .cls-11, .cls-12, .cls-13, .cls-14, .cls-15, .cls-16, .cls-17, .cls-18, .cls-19, .cls-20, .cls-21, .cls-22, .cls-23, .cls-24, .cls-25, .cls-26, .cls-27, .cls-28, .cls-29, .cls-30, .cls-31, .cls-32, .cls-33, .cls-34, .cls-35, .cls-36, .cls-37, .cls-38, .cls-39, .cls-40, .cls-41, .cls-42, .cls-43, .cls-44, .cls-45, .cls-46, .cls-47, .cls-48, .cls-49, .cls-50, .cls-51, .cls-52, .cls-53, .cls-54, .cls-55, .cls-56, .cls-57, .cls-58, .cls-59, .cls-60, .cls-61, .cls-62, .cls-63, .cls-64, .cls-65, .cls-66, .cls-67, .cls-68, .cls-69, .cls-70, .cls-71, .cls-72, .cls-73, .cls-74, .cls-75, .cls-76, .cls-77, .cls-78, .cls-79, .cls-80, .cls-81, .cls-82, .cls-83, .cls-84, .cls-85, .cls-86, .cls-87, .cls-88, .cls-89, .cls-90, .cls-91, .cls-92, .cls-93, .cls-94, .cls-95, .cls-96, .cls-97, .cls-98, .cls-99, .cls-100, .cls-101, .cls-102, .cls-103, .cls-104, .cls-105, .cls-106, .cls-107, .cls-108, .cls-109, .cls-110, .cls-111, .cls-112, .cls-113, .cls-114, .cls-115, .cls-116, .cls-117, .cls-118, .cls-119, .cls-120, .cls-121, .cls-122, .cls-123, .cls-124, .cls-125, .cls-126, .cls-127, .cls-128, .cls-129, .cls-130, .cls-131, .cls-132, .cls-133, .cls-134, .cls-135, .cls-136, .cls-137, .cls-138, .cls-139, .cls-140, .cls-141, .cls-142, .cls-143, .cls-144, .cls-145, .cls-146, .cls-147, .cls-148, .cls-149, .cls-150, .cls-151, .cls-152, .cls-153, .cls-154, .cls-155, .cls-156, .cls-157, .cls-158, .cls-159, .cls-160, .cls-161, .cls-162, .cls-163, .cls-164, .cls-165, .cls-166, .cls-167, .cls-168, .cls-169, .cls-170, .cls-171, .cls-172, .cls-173, .cls-174, .cls-175, .cls-176, .cls-177, .cls-178 {
        stroke-width: 0px;
      }

      .cls-179 {
        opacity: .12;
      }

      .cls-179, .cls-180, .cls-181 {
        isolation: isolate;
      }

      .cls-182 {
        clip-path: url(#clippath-1);
      }

      .cls-183 {
        clip-path: url(#clippath-3);
      }

      .cls-184 {
        clip-path: url(#clippath-2);
      }

      .cls-180 {
        opacity: .2;
      }

      .cls-181 {
        opacity: .25;
      }

      .cls-3 {
        fill: #4a99d3;
      }

      .cls-4 {
        fill: #61bd6a;
      }

      .cls-5 {
        fill: #4ac8ee;
      }

      .cls-6 {
        fill: #48a1d9;
      }

      .cls-7 {
        fill: #48a1da;
      }

      .cls-8 {
        fill: #48a0d8;
      }

      .cls-9 {
        fill: #489fd8;
      }

      .cls-10 {
        fill: #489ed7;
      }

      .cls-11 {
        fill: #48a2da;
      }

      .cls-12 {
        fill: #48a0d9;
      }

      .cls-13 {
        fill: #45ace2;
      }

      .cls-14 {
        fill: #45ace1;
      }

      .cls-15 {
        fill: #45ade2;
      }

      .cls-16 {
        fill: #5bcae8;
      }

      .cls-17 {
        fill: #5ebd6b;
      }

      .cls-18 {
        fill: #60bd6b;
      }

      .cls-19 {
        fill: #44b1e5;
      }

      .cls-20 {
        fill: #44b2e6;
      }

      .cls-21 {
        fill: #44b0e4;
      }

      .cls-22 {
        fill: #44b3e6;
      }

      .cls-23 {
        fill: #5dbc6b;
      }

      .cls-24 {
        fill: #46a8de;
      }

      .cls-25 {
        fill: #46aae0;
      }

      .cls-26 {
        fill: #50c8ec;
      }

      .cls-27 {
        fill: #46abe1;
      }

      .cls-28 {
        fill: #46abe0;
      }

      .cls-29 {
        fill: #46a9df;
      }

      .cls-30 {
        fill: #46c7f0;
      }

      .cls-31 {
        fill: #4bba71;
      }

      .cls-32 {
        fill: #4ec8ec;
      }

      .cls-33 {
        fill: #4dba70;
      }

      .cls-34 {
        fill: #53bb6f;
      }

      .cls-35 {
        fill: #4cc8ed;
      }

      .cls-36 {
        fill: #4fba70;
      }

      .cls-37 {
        fill: #47a5dc;
      }

      .cls-38 {
        fill: #47a3db;
      }

      .cls-39 {
        fill: #47a3da;
      }

      .cls-40 {
        fill: #47a4db;
      }

      .cls-41 {
        fill: #47a7de;
      }

      .cls-42 {
        fill: #47a6dd;
      }

      .cls-43 {
        fill: #4998d3;
      }

      .cls-44 {
        fill: #499cd6;
      }

      .cls-45 {
        fill: #499dd6;
      }

      .cls-46 {
        fill: #48c7ef;
      }

      .cls-47 {
        fill: #499bd5;
      }

      .cls-48 {
        fill: #499ad4;
      }

      .cls-49 {
        fill: #54bb6e;
      }

      .cls-50 {
        fill: #54c9ea;
      }

      .cls-51 {
        fill: #5bbc6c;
      }

      .cls-52 {
        fill: #59c9e9;
      }

      .cls-53 {
        fill: #63be6a;
      }

      .cls-54 {
        fill: #58bc6d;
      }

      .cls-55 {
        fill: #45aee3;
      }

      .cls-56 {
        fill: #45aee2;
      }

      .cls-57 {
        fill: #45afe3;
      }

      .cls-58 {
        fill: #45b0e4;
      }

      .cls-59 {
        fill: #52c8eb;
      }

      .cls-60 {
        fill: #44b4e7;
      }

      .cls-61 {
        fill: #51ba6f;
      }

      .cls-62 {
        fill: #59bc6d;
      }

      .cls-63 {
        fill: #56c9e9;
      }

      .cls-64 {
        fill: #56bb6e;
      }

      .cls-65 {
        fill: #43bfed;
      }

      .cls-66 {
        fill: #43bded;
      }

      .cls-67 {
        fill: #43b8ea;
      }

      .cls-68 {
        fill: #43b9ea;
      }

      .cls-69 {
        fill: #43beed;
      }

      .cls-70 {
        fill: #43bbec;
      }

      .cls-71 {
        fill: #43c2ef;
      }

      .cls-72 {
        fill: #43b4e7;
      }

      .cls-73 {
        fill: #43b5e8;
      }

      .cls-74 {
        fill: #43b7e9;
      }

      .cls-75 {
        fill: #43b6e8;
      }

      .cls-76 {
        fill: #43b6e9;
      }

      .cls-77 {
        fill: #42baeb;
      }

      .cls-78 {
        fill: #42c3f0;
      }

      .cls-79 {
        fill: #42c3ef;
      }

      .cls-80 {
        fill: #42c4f0;
      }

      .cls-81 {
        fill: #43c7f1;
      }

      .cls-82 {
        fill: #43c0ee;
      }

      .cls-83 {
        fill: #43c1ee;
      }

      .cls-84 {
        fill: #43bcec;
      }

      .cls-85 {
        fill: #43bdec;
      }

      .cls-86 {
        fill: #41c7f2;
      }

      .cls-87 {
        fill: #41c5f1;
      }

      .cls-88 {
        fill: #e13752;
      }

      .cls-89 {
        fill: #e13852;
      }

      .cls-90 {
        fill: #d42e59;
      }

      .cls-91 {
        fill: #df3653;
      }

      .cls-92 {
        fill: #e03752;
      }

      .cls-93 {
        fill: #dd3454;
      }

      .cls-94 {
        fill: #db3355;
      }

      .cls-95 {
        fill: #db3356;
      }

      .cls-96 {
        fill: #e23851;
      }

      .cls-97 {
        fill: #e23951;
      }

      .cls-98 {
        fill: #d93256;
      }

      .cls-99 {
        fill: #d93157;
      }

      .cls-100 {
        fill: #dd3554;
      }

      .cls-101 {
        fill: #e33950;
      }

      .cls-102 {
        fill: #e33951;
      }

      .cls-103 {
        fill: #e43a50;
      }

      .cls-104 {
        fill: #d83157;
      }

      .cls-105 {
        fill: #d83057;
      }

      .cls-106 {
        fill: #d62f58;
      }

      .cls-107 {
        fill: #d73058;
      }

      .cls-108 {
        fill: #d72f58;
      }

      .cls-109 {
        fill: #de3653;
      }

      .cls-110 {
        fill: #de3554;
      }

      .cls-111 {
        fill: #dc3355;
      }

      .cls-112 {
        fill: #d52e59;
      }

      .cls-113 {
        fill: #d52f59;
      }

      .cls-114 {
        fill: #dc3455;
      }

      .cls-115 {
        fill: #da3256;
      }

      .cls-116 {
        fill: #a7a6a6;
      }

      .cls-117 {
        fill: #65be69;
      }

      .cls-118 {
        fill: #fed704;
      }

      .cls-119 {
        fill: #fed903;
      }

      .cls-120 {
        fill: #fed605;
      }

      .cls-121 {
        fill: #fed505;
      }

      .cls-122 {
        fill: #fed506;
      }

      .cls-123 {
        fill: #fed108;
      }

      .cls-124 {
        fill: #fecd0b;
      }

      .cls-125 {
        fill: #fecd0a;
      }

      .cls-126 {
        fill: #fecc0b;
      }

      .cls-127 {
        fill: #fed009;
      }

      .cls-128 {
        fill: #fecf09;
      }

      .cls-129 {
        fill: #feca0c;
      }

      .cls-130 {
        fill: #fece0a;
      }

      .cls-131 {
        fill: #fecb0b;
      }

      .cls-132 {
        fill: #fecb0c;
      }

      .cls-133 {
        fill: #fec80d;
      }

      .cls-134 {
        fill: #fec50e;
      }

      .cls-135 {
        fill: #fec60e;
      }

      .cls-136 {
        fill: #fed804;
      }

      .cls-137 {
        fill: #fed406;
      }

      .cls-138 {
        fill: #fed307;
      }

      .cls-139 {
        fill: #fed306;
      }

      .cls-140 {
        fill: #fed207;
      }

      .cls-141 {
        fill: #fec110;
      }

      .cls-142 {
        fill: #fec210;
      }

      .cls-143 {
        fill: #febf10;
      }

      .cls-144 {
        fill: #fec20f;
      }

      .cls-145 {
        fill: #fec30f;
      }

      .cls-146 {
        fill: #fec40f;
      }

      .cls-147 {
        fill: #fec70d;
      }

      .cls-148 {
        fill: #febe10;
      }

      .cls-149 {
        fill: #fec010;
      }

      .cls-150 {
        fill: #febb12;
      }

      .cls-151 {
        fill: #fec90d;
      }

      .cls-152 {
        fill: #fec90c;
      }

      .cls-153 {
        fill: #febd11;
      }

      .cls-154 {
        fill: #febc11;
      }

      .cls-155 {
        fill: #fede00;
      }

      .cls-156 {
        fill: #fff;
      }

      .cls-157 {
        fill: #ed3f4a;
      }

      .cls-158 {
        fill: #e93d4d;
      }

      .cls-159 {
        fill: #eb3e4c;
      }

      .cls-160 {
        fill: #eb3e4b;
      }

      .cls-161 {
        fill: #e63b4f;
      }

      .cls-162 {
        fill: #e73c4e;
      }

      .cls-163 {
        fill: #e73b4e;
      }

      .cls-164 {
        fill: #e83d4d;
      }

      .cls-165 {
        fill: #e53a4f;
      }

      .cls-166 {
        fill: #e53b4f;
      }

      .cls-167 {
        fill: #e83c4d;
      }

      .cls-168 {
        fill: #ef4049;
      }

      .cls-169 {
        fill: #fedb02;
      }

      .cls-170 {
        fill: #feda02;
      }

      .cls-171 {
        fill: #fedc01;
      }

      .cls-172 {
        fill: #fedc00;
      }

      .cls-173 {
        fill: #fedd00;
      }

      .cls-174 {
        fill: #ee3f4a;
      }

      .cls-175 {
        fill: #ea3d4c;
      }

      .cls-176 {
        fill: #ec3f4b;
      }

      .cls-177 {
        fill: #010101;
      }

      .cls-178 {
        fill: #66be69;
      }
    </style>
    <clipPath id="clippath">
      <path class="cls-2" d="m13.08,7.95c-.24.24-.32.64-.32,1.13v17.77c0,.48.16.88.4,1.13l.08.08,9.97-9.97v-.16L13.08,7.95Z"/>
    </clipPath>
    <clipPath id="clippath-1">
      <path class="cls-2" d="m26.43,21.46l-3.3-3.3v-.24l3.3-3.3.08.08,3.94,2.25c1.13.64,1.13,1.69,0,2.33l-4.02,2.17Z"/>
    </clipPath>
    <clipPath id="clippath-2">
      <path class="cls-2" d="m26.51,21.38l-3.38-3.38-10.05,10.05c.4.4.97.4,1.69.08l11.74-6.76"/>
    </clipPath>
    <clipPath id="clippath-3">
      <path class="cls-2" d="m26.51,14.62l-11.74-6.68c-.72-.4-1.29-.32-1.69.08l10.05,9.97,3.38-3.38h0Z"/>
    </clipPath>
  </defs>
  <path class="cls-177" d="m109.27,34.08H8.73c-2.25,0-4.02-1.77-4.02-4.02V5.94c0-2.25,1.77-4.02,4.02-4.02h100.53c2.25,0,4.02,1.77,4.02,4.02v24.13c0,2.25-1.77,4.02-4.02,4.02Z"/>
  <path class="cls-116" d="m109.27,2.56c1.85,0,3.38,1.53,3.38,3.38v24.13c0,1.85-1.53,3.38-3.38,3.38H8.73c-1.85,0-3.38-1.53-3.38-3.38V5.94c0-1.85,1.53-3.38,3.38-3.38h100.53m0-.64H8.73c-2.25,0-4.02,1.85-4.02,4.02v24.13c0,2.25,1.77,4.02,4.02,4.02h100.53c2.25,0,4.02-1.77,4.02-4.02V5.94c0-2.17-1.77-4.02-4.02-4.02Z"/>
  <g>
    <path class="cls-156" d="m42.83,10.12c0,.64-.16,1.21-.56,1.61-.48.48-1.05.72-1.77.72s-1.29-.24-1.77-.72c-.48-.48-.72-1.05-.72-1.77s.24-1.29.72-1.77c.48-.48,1.05-.72,1.77-.72.32,0,.64.08.97.24.32.16.56.32.72.56l-.4.4c-.32-.4-.72-.56-1.29-.56-.48,0-.97.16-1.29.56-.4.32-.56.8-.56,1.37s.16,1.05.56,1.37.8.56,1.29.56c.56,0,.97-.16,1.37-.56.24-.24.4-.56.4-.97h-1.77v-.64h2.33v.32h0Zm3.7-2.01h-2.17v1.53h2.01v.56h-2.01v1.53h2.17v.64h-2.81v-4.83h2.81v.56Zm2.65,4.26h-.64v-4.26h-1.37v-.56h3.38v.56h-1.37v4.26Zm3.7,0v-4.83h.64v4.83h-.64Zm3.38,0h-.64v-4.26h-1.37v-.56h3.3v.56h-1.37v4.26h.08Zm7.64-.64c-.48.48-1.05.72-1.77.72s-1.29-.24-1.77-.72c-.48-.48-.72-1.05-.72-1.77s.24-1.29.72-1.77c.48-.48,1.05-.72,1.77-.72s1.29.24,1.77.72c.48.48.72,1.05.72,1.77s-.24,1.29-.72,1.77Zm-3.06-.4c.32.32.8.56,1.29.56s.97-.16,1.29-.56c.32-.32.56-.8.56-1.37s-.16-1.05-.56-1.37c-.32-.32-.8-.56-1.29-.56s-.97.16-1.29.56c-.32.32-.56.8-.56,1.37s.16,1.05.56,1.37Zm4.66,1.05v-4.83h.72l2.33,3.78v-3.78h.64v4.83h-.64l-2.49-3.94v3.94h-.56Z"/>
    <path class="cls-156" d="m62.14,12.53c-.74,0-1.32-.24-1.83-.75s-.75-1.09-.75-1.83.24-1.32.75-1.83c.51-.51,1.09-.75,1.83-.75s1.32.24,1.83.75.75,1.09.75,1.83-.24,1.32-.75,1.83h0c-.51.51-1.09.75-1.83.75Zm0-4.99c-.69,0-1.23.22-1.71.7-.48.48-.7,1.02-.7,1.71s.22,1.23.7,1.71,1.02.7,1.71.7,1.23-.22,1.71-.7c.48-.48.7-1.02.7-1.71s-.22-1.23-.7-1.71c-.48-.48-1.02-.7-1.71-.7Zm-21.63,4.99c-.74,0-1.32-.24-1.83-.75-.51-.51-.75-1.09-.75-1.83s.24-1.32.75-1.83c.51-.51,1.09-.75,1.83-.75.33,0,.67.08,1,.25.28.14.57.31.75.59l.04.05-.51.51-.06-.07c-.3-.37-.66-.53-1.22-.53-.51,0-.95.19-1.22.53h-.01c-.35.3-.53.73-.53,1.32s.18,1.02.53,1.3c.35.28.75.55,1.24.55.55,0,.93-.16,1.31-.54.23-.23.36-.51.38-.83h-1.77v-.8h2.49v.4c0,.72-.2,1.28-.59,1.67-.51.51-1.09.75-1.83.75Zm0-4.99c-.69,0-1.23.22-1.71.7-.48.48-.7,1.02-.7,1.71s.22,1.23.7,1.71c.48.48,1.02.7,1.71.7s1.23-.22,1.71-.7c.36-.36.54-.88.54-1.55v-.24h-2.17v.48h1.77v.08c0,.39-.15.74-.43,1.02-.41.41-.84.59-1.42.59-.54,0-.98-.29-1.34-.58-.39-.31-.59-.8-.59-1.43s.2-1.11.59-1.42c.31-.38.78-.59,1.34-.59s.97.16,1.29.52l.29-.29c-.13-.18-.33-.32-.65-.48-.31-.15-.62-.23-.93-.23Zm28.79,4.91h-.77l-2.37-3.74v3.74h-.72v-4.99h.85l.02.04,2.18,3.54v-3.58h.8v4.99Zm-.68-.16h.52v-4.66h-.48v3.98l-2.46-3.98h-.6v4.66h.4v-4.14l2.62,4.14Zm-12.35.16h-.72v-4.26h-1.37v-.72h3.46v.72h-1.37v4.26Zm-.56-.16h.4v-4.26h1.37v-.4h-3.14v.4h1.37v4.26Zm-2.09.16h-.8v-4.99h.8v4.99Zm-.64-.16h.48v-4.66h-.48v4.66Zm-3.7.16h-.8v-4.26h-1.37v-.72h3.54v.72h-1.37v4.26Zm-.64-.16h.48v-4.26h1.37v-.4h-3.22v.4h1.37v4.26Zm-2.01.16h-2.98v-4.99h2.98v.72h-2.17v1.37h2.01v.72h-2.01v1.37h2.17v.8Zm-2.81-.16h2.65v-.48h-2.17v-1.69h2.01v-.4h-2.01v-1.69h2.17v-.4h-2.65v4.66Zm18.34-.32c-.47,0-.98-.22-1.34-.58-.39-.31-.59-.8-.59-1.43,0-.53.21-1.05.59-1.42.3-.38.78-.59,1.34-.59.47,0,.98.22,1.34.59.39.31.59.79.59,1.42,0,.53-.21,1.05-.59,1.42-.3.38-.78.59-1.34.59Zm0-3.86c-.51,0-.95.19-1.22.53-.35.35-.55.83-.55,1.32,0,.58.18,1.02.53,1.3h0c.33.34.8.55,1.23.55.51,0,.95-.19,1.22-.53.35-.35.55-.83.55-1.32,0-.58-.18-1.02-.53-1.3-.34-.34-.81-.55-1.24-.55Z"/>
  </g>
  <path class="cls-156" d="m59.48,19.45c-1.93,0-3.46,1.45-3.46,3.46s1.53,3.46,3.46,3.46,3.46-1.45,3.46-3.46-1.53-3.46-3.46-3.46Zm0,5.47c-1.05,0-1.93-.88-1.93-2.09s.88-2.09,1.93-2.09,1.93.8,1.93,2.09c0,1.21-.88,2.09-1.93,2.09Zm-7.48-5.47c-1.93,0-3.46,1.45-3.46,3.46s1.53,3.46,3.46,3.46,3.46-1.45,3.46-3.46-1.53-3.46-3.46-3.46Zm0,5.47c-1.05,0-1.93-.88-1.93-2.09s.88-2.09,1.93-2.09,1.93.8,1.93,2.09c0,1.21-.88,2.09-1.93,2.09Zm-8.93-4.42v1.45h3.46c-.08.8-.4,1.45-.8,1.85-.48.48-1.29,1.05-2.65,1.05-2.17,0-3.78-1.69-3.78-3.86s1.69-3.86,3.78-3.86c1.13,0,2.01.48,2.65,1.05l1.05-1.05c-.88-.8-2.01-1.45-3.62-1.45-2.9,0-5.39,2.41-5.39,5.31s2.49,5.31,5.39,5.31c1.61,0,2.73-.48,3.7-1.53.97-.97,1.29-2.33,1.29-3.38,0-.32,0-.64-.08-.88h-4.99Zm36.51,1.13c-.32-.8-1.13-2.17-2.9-2.17s-3.22,1.37-3.22,3.46c0,1.93,1.45,3.46,3.38,3.46,1.53,0,2.49-.97,2.81-1.53l-1.13-.8c-.4.56-.88.97-1.69.97s-1.29-.32-1.69-1.05l4.58-1.93-.16-.4h0Zm-4.66,1.13c0-1.29,1.05-2.01,1.77-2.01.56,0,1.13.32,1.29.72l-3.06,1.29h0Zm-3.78,3.3h1.53v-10.05h-1.53v10.05Zm-2.41-5.87c-.4-.4-1.05-.8-1.85-.8-1.69,0-3.3,1.53-3.3,3.46s1.53,3.38,3.3,3.38c.8,0,1.45-.4,1.77-.8h.08v.48c0,1.29-.72,2.01-1.85,2.01-.88,0-1.53-.64-1.69-1.21l-1.29.56c.4.88,1.37,2.01,3.06,2.01s3.22-1.05,3.22-3.54v-6.11h-1.45v.56h0Zm-1.77,4.75c-1.05,0-1.93-.88-1.93-2.09s.88-2.09,1.93-2.09,1.85.88,1.85,2.09-.8,2.09-1.85,2.09Zm19.62-8.93h-3.62v10.05h1.53v-3.78h2.09c1.69,0,3.3-1.21,3.3-3.14s-1.61-3.14-3.3-3.14Zm.08,4.83h-2.17v-3.46h2.17c1.13,0,1.77.97,1.77,1.69-.08.88-.72,1.77-1.77,1.77h0Zm9.25-1.45c-1.13,0-2.25.48-2.65,1.53l1.37.56c.32-.56.8-.72,1.37-.72.8,0,1.53.48,1.61,1.29v.08c-.24-.16-.88-.4-1.53-.4-1.45,0-2.9.8-2.9,2.25,0,1.37,1.21,2.25,2.49,2.25,1.05,0,1.53-.48,1.93-.97h.08v.8h1.45v-3.86c-.16-1.77-1.53-2.81-3.22-2.81h0Zm-.16,5.55c-.48,0-1.21-.24-1.21-.88,0-.8.88-1.05,1.61-1.05.64,0,.97.16,1.37.32-.16.97-.97,1.61-1.77,1.61Zm8.44-5.31l-1.69,4.34h-.08l-1.77-4.34h-1.61l2.65,6.11-1.53,3.38h1.53l4.1-9.49h-1.61Zm-13.51,6.43h1.53v-10.05h-1.53v10.05Z"/>
  <g>
    <g class="cls-1">
      <polygon class="cls-43" points="23.21 9.89 21.27 7.95 23.21 7.95 23.21 9.89"/>
      <polygon class="cls-43" points="23.21 9.98 21.18 7.95 21.27 7.95 23.21 9.89 23.21 9.98"/>
      <polygon class="cls-3" points="23.21 10.07 21.08 7.95 21.18 7.95 23.21 9.98 23.21 10.07"/>
      <polygon class="cls-3" points="23.21 10.2 20.96 7.95 21.08 7.95 23.21 10.07 23.21 10.2"/>
      <polygon class="cls-48" points="23.21 10.33 20.83 7.95 20.96 7.95 23.21 10.2 23.21 10.33"/>
      <polygon class="cls-48" points="23.21 10.45 20.7 7.95 20.83 7.95 23.21 10.33 23.21 10.45"/>
      <polygon class="cls-47" points="23.21 10.58 20.58 7.95 20.7 7.95 23.21 10.45 23.21 10.58"/>
      <polygon class="cls-47" points="23.21 10.71 20.45 7.95 20.58 7.95 23.21 10.58 23.21 10.71"/>
      <polygon class="cls-44" points="23.21 10.83 20.32 7.95 20.45 7.95 23.21 10.71 23.21 10.83"/>
      <polygon class="cls-45" points="23.21 10.96 20.2 7.95 20.32 7.95 23.21 10.83 23.21 10.96"/>
      <polygon class="cls-45" points="23.21 11.09 20.07 7.95 20.2 7.95 23.21 10.96 23.21 11.09"/>
      <polygon class="cls-10" points="23.21 11.21 19.95 7.95 20.07 7.95 23.21 11.09 23.21 11.21"/>
      <polygon class="cls-10" points="23.21 11.34 19.82 7.95 19.95 7.95 23.21 11.21 23.21 11.34"/>
      <polygon class="cls-9" points="23.21 11.47 19.69 7.95 19.82 7.95 23.21 11.34 23.21 11.47"/>
      <polygon class="cls-8" points="23.21 11.59 19.57 7.95 19.69 7.95 23.21 11.47 23.21 11.59"/>
      <polygon class="cls-12" points="23.21 11.72 19.44 7.95 19.57 7.95 23.21 11.59 23.21 11.72"/>
      <polygon class="cls-6" points="23.21 11.84 19.31 7.95 19.44 7.95 23.21 11.72 23.21 11.84"/>
      <polygon class="cls-7" points="23.21 11.97 19.19 7.95 19.31 7.95 23.21 11.84 23.21 11.97"/>
      <polygon class="cls-11" points="23.21 12.1 19.06 7.95 19.19 7.95 23.21 11.97 23.21 12.1"/>
      <polygon class="cls-39" points="23.21 12.22 18.93 7.95 19.06 7.95 23.21 12.1 23.21 12.22"/>
      <polygon class="cls-38" points="23.21 12.35 18.81 7.95 18.93 7.95 23.21 12.22 23.21 12.35"/>
      <polygon class="cls-40" points="23.21 12.48 18.68 7.95 18.81 7.95 23.21 12.35 23.21 12.48"/>
      <polygon class="cls-37" points="23.21 12.6 18.55 7.95 18.68 7.95 23.21 12.48 23.21 12.6"/>
      <polygon class="cls-37" points="23.21 12.73 18.43 7.95 18.55 7.95 23.21 12.6 23.21 12.73"/>
      <polygon class="cls-42" points="23.21 12.86 18.3 7.95 18.43 7.95 23.21 12.73 23.21 12.86"/>
      <polygon class="cls-42" points="23.21 12.98 18.17 7.95 18.3 7.95 23.21 12.86 23.21 12.98"/>
      <polygon class="cls-41" points="23.21 13.11 18.05 7.95 18.17 7.95 23.21 12.98 23.21 13.11"/>
      <polygon class="cls-24" points="23.21 13.24 17.92 7.95 18.05 7.95 23.21 13.11 23.21 13.24"/>
      <polygon class="cls-24" points="23.21 13.36 17.8 7.95 17.92 7.95 23.21 13.24 23.21 13.36"/>
      <polygon class="cls-29" points="23.21 13.49 17.67 7.95 17.8 7.95 23.21 13.36 23.21 13.49"/>
      <polygon class="cls-29" points="23.21 13.62 17.54 7.95 17.67 7.95 23.21 13.49 23.21 13.62"/>
      <polygon class="cls-25" points="23.21 13.74 17.42 7.95 17.54 7.95 23.21 13.62 23.21 13.74"/>
      <polygon class="cls-28" points="23.21 13.87 17.29 7.95 17.42 7.95 23.21 13.74 23.21 13.87"/>
      <polygon class="cls-27" points="23.21 13.99 17.16 7.95 17.29 7.95 23.21 13.87 23.21 13.99"/>
      <polygon class="cls-14" points="23.21 14.12 17.04 7.95 17.16 7.95 23.21 13.99 23.21 14.12"/>
      <polygon class="cls-13" points="23.21 14.25 16.91 7.95 17.04 7.95 23.21 14.12 23.21 14.25"/>
      <polygon class="cls-15" points="23.21 14.37 16.78 7.95 16.91 7.95 23.21 14.25 23.21 14.37"/>
      <polygon class="cls-56" points="23.21 14.5 16.66 7.95 16.78 7.95 23.21 14.37 23.21 14.5"/>
      <polygon class="cls-55" points="23.21 14.63 16.53 7.95 16.66 7.95 23.21 14.5 23.21 14.63"/>
      <polygon class="cls-57" points="23.21 14.75 16.4 7.95 16.53 7.95 23.21 14.63 23.21 14.75"/>
      <polygon class="cls-58" points="23.21 14.88 16.28 7.95 16.4 7.95 23.21 14.75 23.21 14.88"/>
      <polygon class="cls-21" points="23.21 15.01 16.15 7.95 16.28 7.95 23.21 14.88 23.21 15.01"/>
      <polygon class="cls-19" points="23.21 15.13 16.02 7.95 16.15 7.95 23.21 15.01 23.21 15.13"/>
      <polygon class="cls-19" points="23.21 15.26 15.9 7.95 16.02 7.95 23.21 15.13 23.21 15.26"/>
      <polygon class="cls-20" points="23.21 15.39 15.77 7.95 15.9 7.95 23.21 15.26 23.21 15.39"/>
      <polygon class="cls-22" points="23.21 15.51 15.65 7.95 15.77 7.95 23.21 15.39 23.21 15.51"/>
      <polygon class="cls-22" points="23.21 15.64 15.52 7.95 15.65 7.95 23.21 15.51 23.21 15.64"/>
      <polygon class="cls-60" points="23.21 15.77 15.39 7.95 15.52 7.95 23.21 15.64 23.21 15.77"/>
      <polygon class="cls-72" points="23.21 15.89 15.27 7.95 15.39 7.95 23.21 15.77 23.21 15.89"/>
      <polygon class="cls-73" points="23.21 16.02 15.14 7.95 15.27 7.95 23.21 15.89 23.21 16.02"/>
      <polygon class="cls-75" points="23.21 16.15 15.01 7.95 15.14 7.95 23.21 16.02 23.21 16.15"/>
      <polygon class="cls-76" points="23.21 16.27 14.89 7.95 15.01 7.95 23.21 16.15 23.21 16.27"/>
      <polygon class="cls-74" points="23.21 16.4 14.76 7.95 14.89 7.95 23.21 16.27 23.21 16.4"/>
      <polygon class="cls-67" points="23.21 16.52 14.63 7.95 14.76 7.95 23.21 16.4 23.21 16.52"/>
      <polygon class="cls-67" points="23.21 16.65 14.51 7.95 14.63 7.95 23.21 16.52 23.21 16.65"/>
      <polygon class="cls-68" points="23.21 16.78 14.38 7.95 14.51 7.95 23.21 16.65 23.21 16.78"/>
      <polygon class="cls-77" points="23.21 16.9 14.25 7.95 14.38 7.95 23.21 16.78 23.21 16.9"/>
      <polygon class="cls-77" points="23.21 17.28 13.88 7.95 14.25 7.95 23.21 16.9 23.21 17.28"/>
      <polygon class="cls-77" points="23.21 17.66 13.5 7.95 13.88 7.95 23.21 17.28 23.21 17.66"/>
      <polygon class="cls-70" points="23.21 18.04 13.12 7.95 13.5 7.95 23.21 17.66 23.21 18.04"/>
      <polygon class="cls-70" points="23.21 18.42 12.76 7.96 12.76 7.95 13.12 7.95 23.21 18.04 23.21 18.42"/>
      <polygon class="cls-84" points="23.21 18.79 12.76 8.34 12.76 7.96 23.21 18.42 23.21 18.79"/>
      <polygon class="cls-85" points="23.21 19.17 12.76 8.72 12.76 8.34 23.21 18.79 23.21 19.17"/>
      <polygon class="cls-66" points="23.21 19.55 12.76 9.09 12.76 8.72 23.21 19.17 23.21 19.55"/>
      <polygon class="cls-69" points="23.21 19.93 12.76 9.47 12.76 9.09 23.21 19.55 23.21 19.93"/>
      <polygon class="cls-65" points="23.21 20.31 12.76 9.85 12.76 9.47 23.21 19.93 23.21 20.31"/>
      <polygon class="cls-82" points="23.21 20.36 23.05 20.52 12.76 10.23 12.76 9.85 23.21 20.31 23.21 20.36"/>
      <polygon class="cls-82" points="23.05 20.52 22.86 20.71 12.76 10.61 12.76 10.23 23.05 20.52"/>
      <polygon class="cls-83" points="22.86 20.71 22.67 20.9 12.76 10.98 12.76 10.61 22.86 20.71"/>
      <polygon class="cls-71" points="22.67 20.9 22.48 21.09 12.76 11.36 12.76 10.98 22.67 20.9"/>
      <polygon class="cls-79" points="22.48 21.09 22.29 21.28 12.76 11.74 12.76 11.36 22.48 21.09"/>
      <polygon class="cls-78" points="22.29 21.28 22.1 21.46 12.76 12.12 12.76 11.74 22.29 21.28"/>
      <polygon class="cls-80" points="22.1 21.46 21.91 21.65 12.76 12.5 12.76 12.12 22.1 21.46"/>
      <polygon class="cls-87" points="21.91 21.65 21.72 21.84 12.76 12.87 12.76 12.5 21.91 21.65"/>
      <polygon class="cls-86" points="21.72 21.84 21.54 22.03 12.76 13.25 12.76 12.87 21.72 21.84"/>
      <polygon class="cls-86" points="21.54 22.03 21.23 22.34 12.76 13.86 12.76 13.25 21.54 22.03"/>
      <polygon class="cls-81" points="21.23 22.34 20.93 22.64 12.76 14.47 12.76 13.86 21.23 22.34"/>
      <polygon class="cls-30" points="20.93 22.64 20.62 22.94 12.76 15.08 12.76 14.47 20.93 22.64"/>
      <polygon class="cls-46" points="20.62 22.94 20.32 23.25 12.76 15.69 12.76 15.08 20.62 22.94"/>
      <polygon class="cls-5" points="20.32 23.25 20.01 23.55 12.76 16.29 12.76 15.69 20.32 23.25"/>
      <polygon class="cls-35" points="20.01 23.55 19.71 23.86 12.76 16.9 12.76 16.29 20.01 23.55"/>
      <polygon class="cls-32" points="19.71 23.86 19.41 24.16 12.76 17.51 12.76 16.9 19.71 23.86"/>
      <polygon class="cls-26" points="19.41 24.16 19.1 24.47 12.76 18.12 12.76 17.51 19.41 24.16"/>
      <polygon class="cls-59" points="19.1 24.47 18.8 24.77 12.76 18.73 12.76 18.12 19.1 24.47"/>
      <polygon class="cls-50" points="18.8 24.77 18.49 25.07 12.76 19.34 12.76 18.73 18.8 24.77"/>
      <polygon class="cls-63" points="18.49 25.07 18.19 25.38 12.76 19.95 12.76 19.34 18.49 25.07"/>
      <polygon class="cls-63" points="18.19 25.38 17.11 26.46 12.76 22.11 12.76 19.95 18.19 25.38"/>
      <polygon class="cls-52" points="17.11 26.46 16.03 27.54 12.76 24.27 12.76 22.11 17.11 26.46"/>
      <polygon class="cls-16" points="16.03 27.54 15.51 28.05 14.38 28.05 12.76 26.42 12.76 24.27 16.03 27.54"/>
      <polygon class="cls-16" points="12.76 26.42 14.38 28.05 12.76 28.05 12.76 26.42"/>
    </g>
    <g class="cls-182">
      <rect class="cls-155" x="31.46" y="14.62" width=".11" height="6.84"/>
      <rect class="cls-155" x="31.31" y="14.62" width=".15" height="6.84"/>
      <rect class="cls-173" x="31.16" y="14.62" width=".15" height="6.84"/>
      <rect class="cls-172" x="31.01" y="14.62" width=".15" height="6.84"/>
      <rect class="cls-171" x="30.85" y="14.62" width=".15" height="6.84"/>
      <rect class="cls-169" x="30.7" y="14.62" width=".15" height="6.84"/>
      <rect class="cls-170" x="30.55" y="14.62" width=".15" height="6.84"/>
      <rect class="cls-119" x="30.39" y="14.62" width=".15" height="6.84"/>
      <rect class="cls-119" x="30.24" y="14.62" width=".15" height="6.84"/>
      <rect class="cls-136" x="30.09" y="14.62" width=".15" height="6.84"/>
      <rect class="cls-118" x="29.93" y="14.62" width=".15" height="6.84"/>
      <rect class="cls-118" x="29.78" y="14.62" width=".15" height="6.84"/>
      <rect class="cls-120" x="29.63" y="14.62" width=".15" height="6.84"/>
      <rect class="cls-121" x="29.48" y="14.62" width=".15" height="6.84"/>
      <rect class="cls-122" x="29.32" y="14.62" width=".15" height="6.84"/>
      <rect class="cls-137" x="29.17" y="14.62" width=".15" height="6.84"/>
      <rect class="cls-139" x="29.02" y="14.62" width=".15" height="6.84"/>
      <rect class="cls-138" x="28.86" y="14.62" width=".15" height="6.84"/>
      <rect class="cls-140" x="28.71" y="14.62" width=".15" height="6.84"/>
      <rect class="cls-123" x="28.56" y="14.62" width=".15" height="6.84"/>
      <rect class="cls-123" x="28.4" y="14.62" width=".15" height="6.84"/>
      <rect class="cls-127" x="28.25" y="14.62" width=".15" height="6.84"/>
      <rect class="cls-128" x="28.1" y="14.62" width=".15" height="6.84"/>
      <rect class="cls-128" x="27.94" y="14.62" width=".15" height="6.84"/>
      <rect class="cls-130" x="27.79" y="14.62" width=".15" height="6.84"/>
      <rect class="cls-125" x="27.64" y="14.62" width=".15" height="6.84"/>
      <rect class="cls-124" x="27.49" y="14.62" width=".15" height="6.84"/>
      <rect class="cls-126" x="27.33" y="14.62" width=".15" height="6.84"/>
      <rect class="cls-131" x="27.18" y="14.62" width=".15" height="6.84"/>
      <rect class="cls-132" x="27.03" y="14.62" width=".15" height="6.84"/>
      <rect class="cls-129" x="26.87" y="14.62" width=".15" height="6.84"/>
      <rect class="cls-152" x="26.72" y="14.62" width=".15" height="6.84"/>
      <rect class="cls-151" x="26.57" y="14.62" width=".15" height="6.84"/>
      <rect class="cls-133" x="26.41" y="14.62" width=".15" height="6.84"/>
      <rect class="cls-147" x="26.26" y="14.62" width=".15" height="6.84"/>
      <rect class="cls-135" x="26.11" y="14.62" width=".15" height="6.84"/>
      <rect class="cls-135" x="25.95" y="14.62" width=".15" height="6.84"/>
      <rect class="cls-134" x="25.8" y="14.62" width=".15" height="6.84"/>
      <rect class="cls-146" x="25.65" y="14.62" width=".15" height="6.84"/>
      <rect class="cls-146" x="25.5" y="14.62" width=".15" height="6.84"/>
      <rect class="cls-145" x="25.34" y="14.62" width=".15" height="6.84"/>
      <rect class="cls-144" x="25.19" y="14.62" width=".15" height="6.84"/>
      <rect class="cls-142" x="25.04" y="14.62" width=".15" height="6.84"/>
      <rect class="cls-141" x="24.88" y="14.62" width=".15" height="6.84"/>
      <rect class="cls-149" x="24.73" y="14.62" width=".15" height="6.84"/>
      <rect class="cls-149" x="24.58" y="14.62" width=".15" height="6.84"/>
      <rect class="cls-143" x="24.42" y="14.62" width=".15" height="6.84"/>
      <rect class="cls-148" x="24.27" y="14.62" width=".15" height="6.84"/>
      <rect class="cls-153" x="24.12" y="14.62" width=".15" height="6.84"/>
      <rect class="cls-153" x="23.96" y="14.62" width=".15" height="6.84"/>
      <rect class="cls-153" x="23.75" y="14.62" width=".22" height="6.84"/>
      <rect class="cls-154" x="23.53" y="14.62" width=".22" height="6.84"/>
      <rect class="cls-150" x="23.32" y="14.62" width=".22" height="6.84"/>
      <rect class="cls-150" x="23.13" y="14.62" width=".19" height="6.84"/>
    </g>
    <g class="cls-184">
      <polygon class="cls-168" points="26.51 21.67 22.83 18 26.51 18 26.51 21.67"/>
      <polygon class="cls-168" points="26.51 22.14 22.36 18 22.83 18 26.51 21.67 26.51 22.14"/>
      <polygon class="cls-174" points="26.51 22.61 21.9 18 22.36 18 26.51 22.14 26.51 22.61"/>
      <polygon class="cls-157" points="26.51 23.08 21.43 18 21.9 18 26.51 22.61 26.51 23.08"/>
      <polygon class="cls-176" points="26.51 23.55 20.96 18 21.43 18 26.51 23.08 26.51 23.55"/>
      <polygon class="cls-160" points="26.51 23.65 26.32 23.84 20.67 18.18 20.86 18 20.96 18 26.51 23.55 26.51 23.65"/>
      <rect class="cls-159" x="23.21" y="17.13" width=".33" height="7.99" transform="translate(-8.09 22.72) rotate(-45)"/>
      <rect class="cls-175" x="22.98" y="17.37" width=".33" height="7.99" transform="translate(-8.33 22.62) rotate(-45)"/>
      <rect class="cls-158" x="22.75" y="17.6" width=".33" height="7.99" transform="translate(-8.56 22.53) rotate(-45)"/>
      <rect class="cls-164" x="22.51" y="17.83" width=".33" height="7.99" transform="translate(-8.8 22.43) rotate(-45)"/>
      <rect class="cls-167" x="22.28" y="18.07" width=".33" height="7.99" transform="translate(-9.03 22.33) rotate(-45)"/>
      <rect class="cls-162" x="22.04" y="18.3" width=".33" height="7.99" transform="translate(-9.27 22.23) rotate(-45)"/>
      <rect class="cls-163" x="21.81" y="18.54" width=".33" height="7.99" transform="translate(-9.5 22.14) rotate(-45)"/>
      <rect class="cls-161" x="21.57" y="18.77" width=".33" height="7.99" transform="translate(-9.73 22.04) rotate(-45)"/>
      <rect class="cls-166" x="21.34" y="19.01" width=".33" height="7.99" transform="translate(-9.97 21.94) rotate(-45)"/>
      <rect class="cls-165" x="21.1" y="19.24" width=".33" height="7.99" transform="translate(-10.2 21.85) rotate(-45)"/>
      <rect class="cls-103" x="20.87" y="19.48" width=".33" height="7.99" transform="translate(-10.44 21.75) rotate(-45)"/>
      <rect class="cls-101" x="20.63" y="19.71" width=".33" height="7.99" transform="translate(-10.67 21.65) rotate(-45)"/>
      <rect class="cls-102" x="20.4" y="19.95" width=".33" height="7.99" transform="translate(-10.91 21.55) rotate(-45)"/>
      <rect class="cls-97" x="20.16" y="20.18" width=".33" height="7.99" transform="translate(-11.14 21.46) rotate(-45)"/>
      <rect class="cls-96" x="19.93" y="20.42" width=".33" height="7.99" transform="translate(-11.38 21.36) rotate(-45)"/>
      <rect class="cls-89" x="19.69" y="20.65" width=".33" height="7.99" transform="translate(-11.61 21.26) rotate(-45)"/>
      <rect class="cls-88" x="19.46" y="20.89" width=".33" height="7.99" transform="translate(-11.85 21.17) rotate(-45)"/>
      <rect class="cls-92" x="19.23" y="21.12" width=".33" height="7.99" transform="translate(-12.08 21.07) rotate(-45)"/>
      <rect class="cls-91" x="18.99" y="21.35" width=".33" height="7.99" transform="translate(-12.32 20.97) rotate(-45)"/>
      <polygon class="cls-91" points="21.87 28.3 21.71 28.46 21.56 28.46 15.98 22.88 16.21 22.64 21.87 28.3"/>
      <polygon class="cls-109" points="21.09 28.46 15.74 23.11 15.98 22.88 21.56 28.46 21.09 28.46"/>
      <polygon class="cls-110" points="20.62 28.46 15.51 23.35 15.74 23.11 21.09 28.46 20.62 28.46"/>
      <polygon class="cls-100" points="20.15 28.46 15.27 23.58 15.51 23.35 20.62 28.46 20.15 28.46"/>
      <polygon class="cls-93" points="19.68 28.46 15.04 23.82 15.27 23.58 20.15 28.46 19.68 28.46"/>
      <polygon class="cls-114" points="19.21 28.46 14.81 24.05 15.04 23.82 19.68 28.46 19.21 28.46"/>
      <polygon class="cls-111" points="18.74 28.46 14.57 24.29 14.81 24.05 19.21 28.46 18.74 28.46"/>
      <polygon class="cls-94" points="18.27 28.46 14.34 24.52 14.57 24.29 18.74 28.46 18.27 28.46"/>
      <polygon class="cls-95" points="17.8 28.46 14.1 24.75 14.34 24.52 18.27 28.46 17.8 28.46"/>
      <polygon class="cls-115" points="17.33 28.46 13.87 24.99 14.1 24.75 17.8 28.46 17.33 28.46"/>
      <polygon class="cls-98" points="16.86 28.46 13.63 25.22 13.87 24.99 17.33 28.46 16.86 28.46"/>
      <polygon class="cls-99" points="16.39 28.46 13.4 25.46 13.63 25.22 16.86 28.46 16.39 28.46"/>
      <polygon class="cls-104" points="15.92 28.46 13.16 25.69 13.4 25.46 16.39 28.46 15.92 28.46"/>
      <polygon class="cls-105" points="15.46 28.46 13.08 26.08 13.08 25.78 13.16 25.69 15.92 28.46 15.46 28.46"/>
      <polygon class="cls-107" points="14.99 28.46 13.08 26.55 13.08 26.08 15.46 28.46 14.99 28.46"/>
      <polygon class="cls-108" points="14.52 28.46 13.08 27.02 13.08 26.55 14.99 28.46 14.52 28.46"/>
      <polygon class="cls-106" points="14.05 28.46 13.08 27.49 13.08 27.02 14.52 28.46 14.05 28.46"/>
      <polygon class="cls-113" points="13.58 28.46 13.08 27.95 13.08 27.49 14.05 28.46 13.58 28.46"/>
      <polygon class="cls-112" points="13.11 28.46 13.08 28.42 13.08 27.95 13.58 28.46 13.11 28.46"/>
      <polygon class="cls-90" points="13.08 28.42 13.11 28.46 13.08 28.46 13.08 28.42"/>
    </g>
    <g class="cls-183">
      <polygon class="cls-31" points="13.32 7.54 13.08 7.78 13.08 7.54 13.32 7.54"/>
      <polygon class="cls-33" points="13.76 7.54 13.08 8.23 13.08 7.78 13.32 7.54 13.76 7.54"/>
      <polygon class="cls-36" points="14.2 7.54 13.08 8.67 13.08 8.23 13.76 7.54 14.2 7.54"/>
      <polygon class="cls-61" points="14.65 7.54 13.08 9.11 13.08 8.67 14.2 7.54 14.65 7.54"/>
      <polygon class="cls-34" points="15.09 7.54 13.08 9.56 13.08 9.11 14.65 7.54 15.09 7.54"/>
      <polygon class="cls-49" points="15.53 7.54 13.08 10 13.08 9.56 15.09 7.54 15.53 7.54"/>
      <polygon class="cls-64" points="15.97 7.54 13.15 10.37 13.08 10.3 13.08 10 15.53 7.54 15.97 7.54"/>
      <polygon class="cls-54" points="16.42 7.54 13.37 10.59 13.15 10.37 15.97 7.54 16.42 7.54"/>
      <polygon class="cls-62" points="16.86 7.54 13.59 10.81 13.37 10.59 16.42 7.54 16.86 7.54"/>
      <polygon class="cls-51" points="17.3 7.54 13.81 11.04 13.59 10.81 16.86 7.54 17.3 7.54"/>
      <polygon class="cls-23" points="17.74 7.54 14.03 11.26 13.81 11.04 17.3 7.54 17.74 7.54"/>
      <polygon class="cls-17" points="18.19 7.54 14.25 11.48 14.03 11.26 17.74 7.54 18.19 7.54"/>
      <polygon class="cls-17" points="18.73 7.54 14.52 11.75 14.25 11.48 18.19 7.54 18.73 7.54"/>
      <polygon class="cls-18" points="19.27 7.54 14.8 12.02 14.52 11.75 18.73 7.54 19.27 7.54"/>
      <polygon class="cls-4" points="19.81 7.54 15.07 12.29 14.8 12.02 19.27 7.54 19.81 7.54"/>
      <polygon class="cls-53" points="20.36 7.54 15.34 12.56 15.07 12.29 19.81 7.54 20.36 7.54"/>
      <polygon class="cls-117" points="20.9 7.54 15.61 12.83 15.34 12.56 20.36 7.54 20.9 7.54"/>
      <polygon class="cls-178" points="21.44 7.54 15.88 13.11 15.61 12.83 20.9 7.54 21.44 7.54"/>
      <polygon class="cls-178" points="21.71 7.54 26.51 12.35 26.51 18 20.78 18 15.88 13.11 21.44 7.54 21.71 7.54"/>
    </g>
    <g class="cls-180">
      <path class="cls-177" d="m26.43,21.3l-11.66,6.59c-.64.4-1.21.32-1.61,0l-.08.08.08.08c.4.32.97.4,1.61,0l11.66-6.76Z"/>
    </g>
    <g class="cls-179">
      <path class="cls-177" d="m13.08,27.89c-.24-.24-.32-.64-.32-1.13v.08c0,.48.16.88.4,1.13v-.08h-.08Zm17.37-8.85l-4.02,2.25.08.08,3.94-2.25c.56-.32.8-.72.8-1.13,0,.4-.32.72-.8,1.05Z"/>
    </g>
    <g class="cls-181">
      <path class="cls-156" d="m14.77,8.03l15.68,8.93c.48.32.8.64.8,1.05,0-.4-.24-.8-.8-1.13L14.77,7.95c-1.13-.64-2.01-.16-2.01,1.13v.08c0-1.21.88-1.77,2.01-1.13Z"/>
    </g>
  </g>
</svg>